<mxfile host="app.diagrams.net" modified="2021-11-20T02:15:33.080Z" agent="5.0 (Windows NT 10.0; Win64; x64) AppleWebKit/537.36 (KHTML, like Gecko) Chrome/95.0.4638.69 Safari/537.36" etag="AM73Iezcr80sqa1wYhPN" version="15.8.2" type="github">
  <diagram id="C5RBs43oDa-KdzZeNtuy" name="Page-1">
    <mxGraphModel dx="782" dy="468" grid="1" gridSize="10" guides="1" tooltips="1" connect="1" arrows="1" fold="1" page="1" pageScale="1" pageWidth="827" pageHeight="1169" background="#B5739D" math="0" shadow="1">
      <root>
        <mxCell id="WIyWlLk6GJQsqaUBKTNV-0" />
        <mxCell id="WIyWlLk6GJQsqaUBKTNV-1" parent="WIyWlLk6GJQsqaUBKTNV-0" />
        <mxCell id="WIyWlLk6GJQsqaUBKTNV-2" value="" style="rounded=0;html=1;jettySize=auto;orthogonalLoop=1;fontSize=11;endArrow=block;endFill=0;endSize=8;strokeWidth=1;shadow=0;labelBackgroundColor=none;edgeStyle=orthogonalEdgeStyle;" parent="WIyWlLk6GJQsqaUBKTNV-1" target="WIyWlLk6GJQsqaUBKTNV-6" edge="1">
          <mxGeometry relative="1" as="geometry">
            <mxPoint x="220" y="100" as="sourcePoint" />
          </mxGeometry>
        </mxCell>
        <mxCell id="KNGXrIUPhLO54PIyoATq-9" value="" style="edgeStyle=orthogonalEdgeStyle;rounded=0;orthogonalLoop=1;jettySize=auto;html=1;" edge="1" parent="WIyWlLk6GJQsqaUBKTNV-1" source="WIyWlLk6GJQsqaUBKTNV-6" target="KNGXrIUPhLO54PIyoATq-8">
          <mxGeometry relative="1" as="geometry" />
        </mxCell>
        <mxCell id="KNGXrIUPhLO54PIyoATq-11" style="edgeStyle=orthogonalEdgeStyle;rounded=0;orthogonalLoop=1;jettySize=auto;html=1;entryX=0;entryY=0.5;entryDx=0;entryDy=0;" edge="1" parent="WIyWlLk6GJQsqaUBKTNV-1" source="WIyWlLk6GJQsqaUBKTNV-6" target="KNGXrIUPhLO54PIyoATq-2">
          <mxGeometry relative="1" as="geometry">
            <mxPoint x="320" y="180" as="targetPoint" />
          </mxGeometry>
        </mxCell>
        <mxCell id="WIyWlLk6GJQsqaUBKTNV-6" value="Buka aplikasi&lt;br&gt;Go-jek" style="rhombus;whiteSpace=wrap;html=1;shadow=0;fontFamily=Helvetica;fontSize=12;align=center;strokeWidth=1;spacing=6;spacingTop=-4;fillColor=#f8cecc;strokeColor=#b85450;" parent="WIyWlLk6GJQsqaUBKTNV-1" vertex="1">
          <mxGeometry x="160" y="140" width="120" height="70" as="geometry" />
        </mxCell>
        <mxCell id="KNGXrIUPhLO54PIyoATq-15" style="edgeStyle=orthogonalEdgeStyle;rounded=0;orthogonalLoop=1;jettySize=auto;html=1;" edge="1" parent="WIyWlLk6GJQsqaUBKTNV-1" source="KNGXrIUPhLO54PIyoATq-2">
          <mxGeometry relative="1" as="geometry">
            <mxPoint x="290" y="280" as="targetPoint" />
            <Array as="points">
              <mxPoint x="520" y="175" />
            </Array>
          </mxGeometry>
        </mxCell>
        <mxCell id="KNGXrIUPhLO54PIyoATq-2" value="unduh aplikasi&lt;br&gt;terlebih dahulu" style="whiteSpace=wrap;html=1;shadow=0;strokeWidth=1;spacing=6;spacingTop=-4;fillColor=#e1d5e7;strokeColor=#9673a6;" vertex="1" parent="WIyWlLk6GJQsqaUBKTNV-1">
          <mxGeometry x="330" y="152.5" width="120" height="45" as="geometry" />
        </mxCell>
        <mxCell id="KNGXrIUPhLO54PIyoATq-13" value="" style="edgeStyle=orthogonalEdgeStyle;rounded=0;orthogonalLoop=1;jettySize=auto;html=1;" edge="1" parent="WIyWlLk6GJQsqaUBKTNV-1" source="KNGXrIUPhLO54PIyoATq-8" target="KNGXrIUPhLO54PIyoATq-12">
          <mxGeometry relative="1" as="geometry" />
        </mxCell>
        <mxCell id="KNGXrIUPhLO54PIyoATq-8" value="daftar akun" style="whiteSpace=wrap;html=1;shadow=0;strokeWidth=1;spacing=6;spacingTop=-4;fillColor=#e1d5e7;strokeColor=#9673a6;" vertex="1" parent="WIyWlLk6GJQsqaUBKTNV-1">
          <mxGeometry x="160" y="250" width="120" height="40" as="geometry" />
        </mxCell>
        <mxCell id="KNGXrIUPhLO54PIyoATq-10" style="edgeStyle=orthogonalEdgeStyle;rounded=0;orthogonalLoop=1;jettySize=auto;html=1;exitX=0.5;exitY=1;exitDx=0;exitDy=0;" edge="1" parent="WIyWlLk6GJQsqaUBKTNV-1" source="KNGXrIUPhLO54PIyoATq-2" target="KNGXrIUPhLO54PIyoATq-2">
          <mxGeometry relative="1" as="geometry" />
        </mxCell>
        <mxCell id="KNGXrIUPhLO54PIyoATq-18" value="" style="edgeStyle=orthogonalEdgeStyle;rounded=0;orthogonalLoop=1;jettySize=auto;html=1;" edge="1" parent="WIyWlLk6GJQsqaUBKTNV-1" source="KNGXrIUPhLO54PIyoATq-12" target="KNGXrIUPhLO54PIyoATq-17">
          <mxGeometry relative="1" as="geometry">
            <Array as="points">
              <mxPoint x="220" y="400" />
              <mxPoint x="220" y="400" />
            </Array>
          </mxGeometry>
        </mxCell>
        <mxCell id="KNGXrIUPhLO54PIyoATq-12" value="pilih menu Go-food&lt;br&gt;dengan icon garpu" style="whiteSpace=wrap;html=1;shadow=0;strokeWidth=1;spacing=6;spacingTop=-4;fillColor=#e1d5e7;strokeColor=#9673a6;" vertex="1" parent="WIyWlLk6GJQsqaUBKTNV-1">
          <mxGeometry x="160" y="340" width="120" height="40" as="geometry" />
        </mxCell>
        <mxCell id="KNGXrIUPhLO54PIyoATq-20" value="" style="edgeStyle=orthogonalEdgeStyle;rounded=0;orthogonalLoop=1;jettySize=auto;html=1;" edge="1" parent="WIyWlLk6GJQsqaUBKTNV-1" source="KNGXrIUPhLO54PIyoATq-17" target="KNGXrIUPhLO54PIyoATq-19">
          <mxGeometry relative="1" as="geometry" />
        </mxCell>
        <mxCell id="KNGXrIUPhLO54PIyoATq-17" value="masukan nama&lt;br&gt;cafe/restaurant" style="whiteSpace=wrap;html=1;shadow=0;strokeWidth=1;spacing=6;spacingTop=-4;fillColor=#e1d5e7;strokeColor=#9673a6;" vertex="1" parent="WIyWlLk6GJQsqaUBKTNV-1">
          <mxGeometry x="160" y="420" width="120" height="40" as="geometry" />
        </mxCell>
        <mxCell id="KNGXrIUPhLO54PIyoATq-22" value="" style="edgeStyle=orthogonalEdgeStyle;rounded=0;orthogonalLoop=1;jettySize=auto;html=1;" edge="1" parent="WIyWlLk6GJQsqaUBKTNV-1" source="KNGXrIUPhLO54PIyoATq-19" target="KNGXrIUPhLO54PIyoATq-21">
          <mxGeometry relative="1" as="geometry" />
        </mxCell>
        <mxCell id="KNGXrIUPhLO54PIyoATq-19" value="klik menu pesan&amp;nbsp;&lt;br&gt;untuk memesan makanan" style="whiteSpace=wrap;html=1;shadow=0;strokeWidth=1;spacing=6;spacingTop=-4;fillColor=#e1d5e7;strokeColor=#9673a6;" vertex="1" parent="WIyWlLk6GJQsqaUBKTNV-1">
          <mxGeometry x="160" y="500" width="120" height="60" as="geometry" />
        </mxCell>
        <mxCell id="KNGXrIUPhLO54PIyoATq-24" value="" style="edgeStyle=orthogonalEdgeStyle;rounded=0;orthogonalLoop=1;jettySize=auto;html=1;" edge="1" parent="WIyWlLk6GJQsqaUBKTNV-1" source="KNGXrIUPhLO54PIyoATq-21" target="KNGXrIUPhLO54PIyoATq-23">
          <mxGeometry relative="1" as="geometry" />
        </mxCell>
        <mxCell id="KNGXrIUPhLO54PIyoATq-26" value="" style="edgeStyle=orthogonalEdgeStyle;rounded=0;orthogonalLoop=1;jettySize=auto;html=1;" edge="1" parent="WIyWlLk6GJQsqaUBKTNV-1" source="KNGXrIUPhLO54PIyoATq-21" target="KNGXrIUPhLO54PIyoATq-25">
          <mxGeometry relative="1" as="geometry" />
        </mxCell>
        <mxCell id="KNGXrIUPhLO54PIyoATq-21" value="pilih metode pembayaran" style="rhombus;whiteSpace=wrap;html=1;shadow=0;strokeWidth=1;spacing=6;spacingTop=-4;fillColor=#f8cecc;strokeColor=#b85450;" vertex="1" parent="WIyWlLk6GJQsqaUBKTNV-1">
          <mxGeometry x="160" y="610" width="120" height="80" as="geometry" />
        </mxCell>
        <mxCell id="KNGXrIUPhLO54PIyoATq-31" style="edgeStyle=orthogonalEdgeStyle;rounded=0;orthogonalLoop=1;jettySize=auto;html=1;" edge="1" parent="WIyWlLk6GJQsqaUBKTNV-1" source="KNGXrIUPhLO54PIyoATq-23">
          <mxGeometry relative="1" as="geometry">
            <mxPoint x="290" y="810" as="targetPoint" />
            <Array as="points">
              <mxPoint x="407" y="810" />
            </Array>
          </mxGeometry>
        </mxCell>
        <mxCell id="KNGXrIUPhLO54PIyoATq-23" value="Go-pay" style="whiteSpace=wrap;html=1;shadow=0;strokeWidth=1;spacing=6;spacingTop=-4;fillColor=#e1d5e7;strokeColor=#9673a6;labelBackgroundColor=default;fontColor=#C3ABD0;" vertex="1" parent="WIyWlLk6GJQsqaUBKTNV-1">
          <mxGeometry x="354" y="630" width="106" height="40" as="geometry" />
        </mxCell>
        <mxCell id="KNGXrIUPhLO54PIyoATq-29" value="" style="edgeStyle=orthogonalEdgeStyle;rounded=0;orthogonalLoop=1;jettySize=auto;html=1;" edge="1" parent="WIyWlLk6GJQsqaUBKTNV-1" source="KNGXrIUPhLO54PIyoATq-25" target="KNGXrIUPhLO54PIyoATq-28">
          <mxGeometry relative="1" as="geometry" />
        </mxCell>
        <mxCell id="KNGXrIUPhLO54PIyoATq-25" value="cash" style="whiteSpace=wrap;html=1;shadow=0;strokeWidth=1;spacing=6;spacingTop=-4;fillColor=#e1d5e7;strokeColor=#9673a6;" vertex="1" parent="WIyWlLk6GJQsqaUBKTNV-1">
          <mxGeometry x="160" y="720" width="120" height="40" as="geometry" />
        </mxCell>
        <mxCell id="KNGXrIUPhLO54PIyoATq-35" style="edgeStyle=orthogonalEdgeStyle;rounded=0;orthogonalLoop=1;jettySize=auto;html=1;exitX=0.5;exitY=1;exitDx=0;exitDy=0;entryX=0.5;entryY=0;entryDx=0;entryDy=0;entryPerimeter=0;" edge="1" parent="WIyWlLk6GJQsqaUBKTNV-1" source="KNGXrIUPhLO54PIyoATq-28" target="KNGXrIUPhLO54PIyoATq-34">
          <mxGeometry relative="1" as="geometry" />
        </mxCell>
        <mxCell id="KNGXrIUPhLO54PIyoATq-28" value="menunggu pesanan" style="whiteSpace=wrap;html=1;shadow=0;strokeWidth=1;spacing=6;spacingTop=-4;fillColor=#e1d5e7;strokeColor=#9673a6;" vertex="1" parent="WIyWlLk6GJQsqaUBKTNV-1">
          <mxGeometry x="160" y="790" width="120" height="50" as="geometry" />
        </mxCell>
        <mxCell id="KNGXrIUPhLO54PIyoATq-34" value="Finish" style="strokeWidth=2;html=1;shape=mxgraph.flowchart.terminator;whiteSpace=wrap;fillColor=#fff2cc;strokeColor=#d6b656;" vertex="1" parent="WIyWlLk6GJQsqaUBKTNV-1">
          <mxGeometry x="160" y="870" width="120" height="50" as="geometry" />
        </mxCell>
        <mxCell id="KNGXrIUPhLO54PIyoATq-36" value="Start" style="strokeWidth=2;html=1;shape=mxgraph.flowchart.start_1;whiteSpace=wrap;fillColor=#fff2cc;strokeColor=#d6b656;" vertex="1" parent="WIyWlLk6GJQsqaUBKTNV-1">
          <mxGeometry x="170" y="40" width="100" height="60" as="geometry" />
        </mxCell>
      </root>
    </mxGraphModel>
  </diagram>
</mxfile>
